<svg xmlns="http://www.w3.org/2000/svg" fill="none" viewBox="0 0 24 24">
  <path d="M9.75 6.66v1.268h14.237c-.02-.41-.063-.926-.216-1.268" fill="#EC1C24"/>
  <path d="M23.1 5.393H9.75V6.66h14.021a3.945 3.945 0 00-.671-1.268" fill="#E6E7E8"/>
  <path d="M20.25 4.125H9.75v1.268H23.1c-.626-.784-1.656-1.268-2.85-1.268z" fill="#EC1C24"/>
  <path d="M23.987 7.928H9.75v1.267H24V8.35c0-.075-.005-.149-.007-.223a4.438 4.438 0 01-.006-.2" fill="#E6E7E8"/>
  <path d="M9.75 10.463H24V9.194H9.75v1.268z" fill="#EC1C24"/>
  <path d="M9.75 11.73H24v-1.268H9.75v1.268" fill="#E6E7E8"/>
  <path d="M9.75 11.73H24v1.268H9.75V11.73z" fill="#EC1C24"/>
  <path d="M0 12.998v1.267h24v-1.268H0z" fill="#E6E7E8"/>
  <path d="M0 14.265h24v1.268H0v-1.268z" fill="#EC1C24"/>
  <path d="M.002 16.312s-.004.307.005.488h23.985c.011-.185.006-.488.006-.488l.002-.78H0l.002.78z" fill="#E6E7E8"/>
  <path d="M3.75 20.625h16.5c1.197 0 2.193-.435 2.872-1.29H.874c.702.874 1.716 1.29 2.874 1.29" fill="#EC1C24"/>
  <path d="M.876 19.335h22.248a3.75 3.75 0 00.653-1.268H.227c.137.46.357.89.65 1.268" fill="#E6E7E8"/>
  <path d="M.225 18.067h23.55a5.39 5.39 0 00.218-1.267H.008c.037.433.071.76.217 1.267z" fill="#EC1C24"/>
  <path d="M9.75 4.125h-6C1.265 4.125 0 5.972 0 8.25v4.748h9.75V4.125z" fill="#176496"/>
  <path d="M1.05 6.366l.203-.157.204.157-.08-.252.204-.154h-.25l-.079-.253-.077.253h-.25l.204.154-.08.252zm1.347 0l.204-.157.204.157-.08-.252.203-.154h-.25l-.077-.253-.078.253h-.25l.203.154-.079.252zm1.487 0l.204-.157.204.157-.08-.252.203-.154h-.249l-.079-.253-.077.253h-.25l.202.154-.08.252zm1.476 0l.204-.157.204.157-.08-.252.203-.154H5.64l-.076-.253-.078.253h-.25l.203.154-.08.252zm1.481 0l.204-.157.204.157-.079-.252.203-.154h-.251l-.077-.253-.077.253h-.25l.202.154-.079.252zm-5.074.658l.203-.156.204.156-.079-.252.203-.154h-.25l-.078-.252-.076.252h-.251l.202.154-.078.252zm1.348 0l.203-.156.204.156-.079-.252.203-.154h-.252l-.076-.252-.077.252h-.25l.202.154-.078.252zm1.487 0l.203-.156.204.156-.08-.252.204-.154h-.25l-.078-.252-.078.252h-.25l.203.154-.078.252zm1.475 0l.204-.156.204.156-.08-.252.203-.154h-.25l-.077-.252-.077.252h-.25l.202.154-.08.252zm1.483 0l.202-.156.204.156-.08-.252.203-.154h-.25l-.077-.252-.077.252h-.25l.202.154-.077.252zm.835-.658l.204-.157.204.157-.08-.252.203-.154h-.248l-.08-.253-.077.253H8.27l.205.154-.079.252zM1.03 11.633l.204-.155.204.155-.079-.25.203-.155-.25.001-.078-.253-.077.253h-.25l.202.154-.079.25zm1.349 0l.203-.155.204.155-.079-.25.203-.155-.25.001-.078-.253-.077.253h-.25l.202.154-.079.25zm1.486 0l.204-.155.204.155-.08-.25.203-.155-.251.001-.076-.253-.078.253h-.25l.203.154-.079.25zm1.476 0l.204-.155.204.155-.078-.25.201-.155-.25.001-.077-.253-.078.253h-.25l.203.154-.079.25zm1.481 0l.204-.155.204.155-.078-.25.202-.155-.25.001-.078-.253-.077.253h-.25l.202.154-.079.25zm1.554 0l.204-.155.204.155-.08-.25.204-.155-.252.001-.076-.253-.078.253H8.25l.204.154-.079.25zM1.05 7.683l.204-.157.204.157-.08-.252.204-.154h-.25l-.079-.253-.077.254-.25-.001.204.154-.08.252zm1.348 0l.204-.157.204.157-.08-.252.203-.154h-.25l-.077-.253-.078.254-.25-.001.203.154-.079.252zm1.487 0l.204-.157.204.157-.08-.252.203-.154h-.249l-.079-.253-.077.254-.249-.001.202.154-.08.252zm1.476 0l.204-.157.204.157-.08-.252.203-.154H5.64l-.076-.253-.078.254-.25-.001.203.154-.08.252zm1.481 0l.204-.157.204.157-.079-.252.203-.154h-.251l-.077-.253-.077.254-.25-.001.202.154-.079.252zm-5.074.659l.203-.157.204.156-.079-.251.203-.155h-.25l-.078-.252-.076.252h-.251l.202.155-.078.252zm1.348 0l.203-.157.204.156-.079-.251.203-.155h-.252l-.076-.252-.077.252h-.25l.202.155-.078.252zm1.487 0l.203-.157.204.156-.08-.251.204-.155h-.25l-.078-.252-.078.252h-.25l.203.155-.078.252zm1.475 0l.204-.157.204.156-.08-.251.203-.155h-.25l-.077-.252-.077.252h-.25l.202.155-.08.252zm1.483 0l.202-.157.204.156-.08-.251.203-.155h-.25l-.077-.252-.077.252h-.25l.202.155-.077.252zm.835-.659l.204-.157.204.157-.08-.252.203-.154h-.248l-.08-.253-.077.254-.252-.001.205.154-.079.252zM1.03 9l.204-.156.204.156-.08-.251.204-.155-.25.001-.078-.254-.077.254h-.25l.202.154L1.03 9zm1.349 0l.203-.156.204.156-.079-.251.203-.155-.25.001-.078-.254-.077.254h-.25l.202.154-.08.251zm1.486 0l.204-.156.204.156-.08-.251.203-.155-.251.001-.076-.254-.078.254h-.25l.203.154-.08.251zM5.34 9l.204-.156.204.156-.078-.251.201-.155-.25.001-.077-.254-.078.254h-.25l.203.154L5.34 9zm1.481 0l.204-.156L7.23 9l-.078-.251.202-.155-.25.001-.078-.254-.077.254h-.25l.202.154-.08.251zm-5.074.659l.203-.157.204.156-.078-.25.202-.154h-.25L1.95 9l-.077.254h-.25l.202.155-.078.25zm1.348 0l.204-.157.203.156-.079-.25.203-.154h-.251L3.298 9l-.077.254h-.25l.203.155-.08.25zm1.487 0l.203-.157.204.156-.08-.25.204-.154h-.25L4.785 9l-.077.254h-.25l.202.155-.078.25zm1.474 0l.205-.157.204.156-.079-.25.202-.154h-.25L6.261 9l-.077.254h-.25l.202.155-.08.25zm1.481 0l.205-.157.204.156-.079-.25.203-.154h-.25L7.742 9l-.077.254h-.25l.202.155-.08.25zM8.375 9l.204-.156.204.156-.08-.251.204-.155-.252.001-.076-.254-.078.254H8.25l.204.154L8.375 9zM1.03 10.317l.204-.155.204.155-.08-.251.204-.155-.25.001-.078-.254-.077.254h-.25l.202.154-.079.251zm1.349 0l.203-.155.204.155-.079-.251.203-.155-.25.001-.078-.254-.077.254h-.25l.202.154-.079.251zm1.486 0l.204-.155.204.155-.08-.251.203-.155-.251.001-.076-.254-.078.254h-.25l.203.154-.079.251zm1.476 0l.204-.155.204.155-.078-.251.201-.155-.25.001-.077-.254-.078.254h-.25l.203.154-.079.251zm1.481 0l.204-.155.204.155-.078-.251.202-.155-.25.001-.078-.254-.077.254h-.25l.202.154-.079.251zm-5.074.66l.203-.158.204.157-.078-.252.202-.153h-.25l-.078-.254-.077.254h-.25l.202.153-.078.252zm1.348 0l.204-.158.203.157-.079-.252.203-.153h-.251l-.077-.254-.077.254h-.25l.203.153-.08.252zm1.487 0l.203-.158.204.157-.08-.252.204-.153h-.25l-.078-.254-.077.254h-.25l.202.153-.078.252zm1.474 0l.205-.158.204.157-.079-.252.202-.153h-.25l-.077-.254-.077.254h-.25l.202.153-.08.252zm1.481 0l.205-.158.204.157-.079-.252.203-.153h-.25l-.078-.254-.077.254h-.25l.202.153-.08.252zm.838-.66l.204-.155.204.155-.08-.251.204-.155-.252.001-.076-.254-.078.254H8.25l.204.154-.079.251z" fill="#fff"/>
</svg>
