<svg xmlns="http://www.w3.org/2000/svg" fill="none" viewBox="0 0 134 27">
  <g clip-path="url(#iEGzm2Ziqca)">
    <path d="M40.904 8.18a4.933 4.933 0 011.832 2.529v-3.31h2.15v12.978h-2.15v-3.31a4.925 4.925 0 01-1.832 2.53c-.874.63-1.942.945-3.203.945-1.15 0-2.174-.268-3.073-.804a5.55 5.55 0 01-2.115-2.304c-.512-1.001-.769-2.18-.769-3.534 0-1.355.257-2.537.769-3.546a5.544 5.544 0 012.115-2.316c.898-.535 1.923-.803 3.073-.804 1.261 0 2.33.315 3.203.946zm-5.767 2.234c-.796.843-1.194 2.005-1.194 3.486 0 1.48.398 2.643 1.194 3.487.793.842 1.851 1.263 3.175 1.264.8.014 1.589-.19 2.281-.59a4.111 4.111 0 001.572-1.667c.378-.718.567-1.55.567-2.494 0-.945-.189-1.78-.567-2.506a4.02 4.02 0 00-1.572-1.666 4.481 4.481 0 00-2.281-.58c-1.324 0-2.382.422-3.175 1.266zM50.395 7.4l4.207 10.211 3.9-10.211h2.388l-7.706 19.122h-2.435l2.695-6.358L47.984 7.4h2.41zm22.868.638a5.751 5.751 0 012.317 2.316c.56 1.009.84 2.19.84 3.546 0 1.355-.28 2.533-.84 3.534a5.762 5.762 0 01-2.317 2.304c-.984.537-2.099.805-3.344.804-1.245 0-2.36-.268-3.345-.804a5.847 5.847 0 01-2.328-2.304c-.567-1.001-.85-2.18-.85-3.534 0-1.355.283-2.537.85-3.546a5.836 5.836 0 012.328-2.316c.985-.535 2.1-.803 3.345-.804 1.245 0 2.36.267 3.344.804zM67.78 9.645a3.913 3.913 0 00-1.583 1.596c-.402.717-.602 1.603-.602 2.659 0 1.04.2 1.919.602 2.636a3.91 3.91 0 001.584 1.595 4.66 4.66 0 004.278 0 3.904 3.904 0 001.584-1.595c.402-.718.603-1.597.603-2.636 0-1.055-.201-1.941-.603-2.659a3.907 3.907 0 00-1.584-1.596 4.66 4.66 0 00-4.279 0zm22.87-1.607c.898.536 1.603 1.308 2.114 2.316.512 1.008.769 2.19.77 3.546 0 1.356-.257 2.534-.77 3.534a5.555 5.555 0 01-2.115 2.304c-.898.537-1.922.805-3.073.804-1.26 0-2.328-.319-3.203-.957a4.865 4.865 0 01-1.808-2.518v3.31h-2.15V2.885h2.147v7.824a4.862 4.862 0 011.807-2.517c.875-.638 1.943-.957 3.204-.958 1.152 0 2.178.268 3.076.804zm-5.957 1.69c-.68.389-1.23.968-1.584 1.666-.378.726-.567 1.561-.567 2.506 0 .945.189 1.776.567 2.494a4.085 4.085 0 001.584 1.666c.69.398 1.473.602 2.269.591 1.339 0 2.406-.421 3.202-1.264.796-.843 1.195-2.005 1.195-3.487 0-1.48-.398-2.643-1.195-3.486-.796-.844-1.863-1.265-3.202-1.265a4.493 4.493 0 00-2.27.58zM98.425 7.4l4.208 10.211 3.9-10.211h2.387l-7.705 19.122H98.78l2.695-6.358L96.015 7.4h2.41zm19.832 11.086v1.89h-1.607c-1.324 0-2.312-.315-2.966-.945-.654-.63-.981-1.686-.982-3.167V9.267h-1.938V7.4h1.938V4.16h2.175V7.4h3.357v1.867h-3.357v7.044c0 .836.154 1.407.462 1.714.307.307.839.46 1.595.46h1.323zm15.646-4.137h-10.374c.047 1.482.468 2.593 1.264 3.333.795.74 1.768 1.11 2.919 1.11 1.04 0 1.911-.263 2.612-.79a3.276 3.276 0 001.289-2.116h2.29a5.42 5.42 0 01-3.168 4.065c-.867.395-1.844.592-2.931.591-1.245 0-2.349-.268-3.309-.804a5.673 5.673 0 01-2.258-2.304c-.543-1.001-.815-2.18-.815-3.534 0-1.355.272-2.537.815-3.546a5.662 5.662 0 012.258-2.316c.96-.535 2.064-.803 3.309-.804 1.261 0 2.36.268 3.297.804a5.533 5.533 0 012.151 2.15c.5.913.757 1.939.745 2.98a6.5 6.5 0 01-.094 1.181zm-2.553-3.451a3.473 3.473 0 00-1.489-1.442 4.541 4.541 0 00-2.057-.473c-1.182 0-2.175.367-2.978 1.1-.804.733-1.237 1.808-1.3 3.226h8.297c.049-.96-.109-1.764-.473-2.411z" fill="#fff"/>
    <path d="M13.266 0a13.209 13.209 0 0113.208 13.209A13.266 13.266 0 0113.21 26.474H0V13.266A13.266 13.266 0 0113.266 0z" fill="#EE3889"/>
    <path d="M2.34 24.595V12.656S1.033 4.629 10.712 3.6h8.81s-.87 4.425-5.928 4.425c0 0-6.47-.72-6.47 4.528v8.44s-1.412 3.292-4.786 3.602z" fill="#07B6BF"/>
  </g>
  <defs>
    <clipPath id="iEGzm2Ziqca">
      <path fill="#fff" d="M0 0h134v27H0z"/>
    </clipPath>
  </defs>
</svg>
