<svg xmlns="http://www.w3.org/2000/svg" fill="none" viewBox="0 0 64 52">
  <path d="M61.16 51.616L2.347 17.832C1.027 17.1 0 15.052 0 13.298V2.037C0 .28 1.027-.45 2.347.28l58.96 33.93c1.32.732 2.346 2.78 2.346 4.535v11.261c0 1.609-1.173 2.486-2.493 1.609z" fill="#2B2320"/>
  <path d="M15.548 18.124l-8.213-4.826c-.587-.439-1.173-1.316-1.173-2.194 0-.878.586-1.316 1.173-.878l8.213 4.827c.587.438 1.174 1.316 1.174 2.194 0 .877-.44 1.316-1.174.877z" fill="#EE4037"/>
  <path d="M24.2 21.78c0 1.609-1.173 2.34-2.493 1.463-1.32-.878-2.493-2.78-2.493-4.388 0-1.609 1.173-2.34 2.493-1.462 1.32.877 2.494 2.778 2.494 4.387z" fill="#fff"/>
  <path d="M34.026 27.484c0 .877-.587 1.17-1.32.731-.734-.439-1.32-1.462-1.32-2.34 0-.877.586-1.17 1.32-.731.733.439 1.32 1.609 1.32 2.34z" fill="#2B2320"/>
  <path d="M38.868 30.263c0 .877-.587 1.17-1.32.731-.734-.439-1.32-1.462-1.32-2.34 0-.877.586-1.17 1.32-.731.733.439 1.32 1.463 1.32 2.34z" fill="#EE4037"/>
  <path d="M43.71 33.041c0 .878-.587 1.17-1.32.732-.733-.44-1.32-1.463-1.32-2.34 0-.878.587-1.17 1.32-.732.733.44 1.32 1.463 1.32 2.34z" fill="#2B2320"/>
  <path d="M57.2 42.987l-2.787-1.609c-.44-.292-.733-.877-.733-1.462V36.99c0-.585.293-.878.733-.585l2.787 1.608c.44.293.733.878.733 1.463v2.925c0 .585-.293.877-.733.585z" fill="#EE4037"/>
</svg>
