<svg xmlns="http://www.w3.org/2000/svg" fill="none" viewBox="0 0 137 186">
  <path d="M132.32 184.989L3.9 111.204c-2.14-1.253-3.9-4.635-3.9-7.516V3.47C0 .59 1.76-.789 3.9.464l128.42 73.785c2.138 1.252 3.899 4.635 3.899 7.516v100.342c0 2.882-1.761 4.134-3.899 2.882z" fill="#CBD4DE"/>
  <path d="M6.038 100.305V13.868c0-2.881 1.76-4.26 3.899-3.007l116.22 66.895c2.138 1.253 3.899 4.635 3.899 7.517v86.437c0 2.881-1.761 4.259-3.899 3.006l-116.094-67.02c-2.265-1.253-4.025-4.51-4.025-7.391z" fill="#2B2320"/>
</svg>
