<svg xmlns="http://www.w3.org/2000/svg" fill="none" viewBox="0 0 5 5">
  <path fill-rule="evenodd" clip-rule="evenodd" d="M2.645 1.054c.116-.144.128-.289.131-.441.004-.13.023-.26.046-.39A.29.29 0 012.9.09a.122.122 0 01.098-.027c.018.004.036.055.034.084-.002.052-.026.103-.03.154-.007.108-.007.215-.008.322V.96c.077-.16.15-.315.226-.469.039-.085.083-.168.133-.248.019-.026.068-.034.103-.05.013.036.046.076.038.105-.044.16-.098.316-.151.472-.047.143-.098.284-.157.45a.645.645 0 00.277-.325c.065-.138.14-.272.226-.398.041-.059.117-.132.197-.064.02.017-.017.131-.054.18a1.078 1.078 0 00-.173.375c-.031.118-.113.223-.168.323a1.23 1.23 0 00.087-.075L4.04.821a.61.61 0 01.138-.097c.023-.012.07-.002.09.014.017.012.02.06.008.081a.908.908 0 01-.11.156c-.178.2-.358.398-.554.613.188-.026.306-.118.42-.23.09-.088.193-.164.294-.24a.18.18 0 01.104-.038c.05.001.1.023.149.037-.027.04-.043.097-.081.12a1.093 1.093 0 00-.37.339c-.057.084-.163.132-.263.21.217-.078.418-.15.62-.219.077-.026.158-.049.238-.062.025-.004.071.02.08.042.007.023-.008.07-.028.087a.901.901 0 01-.174.103c-.233.113-.466.222-.718.342.203.06.362-.012.528-.074.127-.046.267-.064.403-.076.04-.004.088.051.13.08-.038.03-.075.085-.118.089-.177.019-.328.09-.482.175-.102.056-.234.058-.353.086l.844.049.011.001.153.087c-.048.03-.097.084-.149.088-.254.023-.511.034-.766.05-.04.001-.078.005-.142.01.183.134.362.123.548.129.133.002.269.048.398.09.034.01.051.073.075.111-.042.015-.084.041-.125.041-.055 0-.11-.023-.167-.033-.047-.008-.098-.023-.143-.015-.195.036-.387.064-.573-.046 0 .01-.003.019-.006.028l.63.3c.061.029.124.059.178.1.026.02.035.067.05.102-.035.014-.07.045-.102.04a1.11 1.11 0 01-.217-.06A53.665 53.665 0 013.8 3.19c.06.147.175.22.401.309.106.04.205.11.295.18.058.045.143.122.08.197-.069.08-.145-.01-.202-.054a.982.982 0 00-.354-.163c-.124-.035-.234-.12-.344-.183.145.161.299.33.45.5.047.054.098.107.133.168.019.032.007.082.008.122-.041-.003-.095.009-.124-.013-.113-.087-.218-.184-.326-.279-.131-.115-.26-.233-.406-.363.03.212.146.341.283.457a.632.632 0 01.231.365c.009.045-.018.094-.03.142-.04-.025-.1-.038-.12-.075a1.115 1.115 0 00-.352-.374c-.082-.055-.13-.16-.2-.253l.095.282c.05.146.103.29.154.436.015.038.023.08.023.12-.002.033-.022.08-.045.088-.027.008-.073-.013-.093-.038-.038-.046-.064-.102-.09-.155-.113-.233-.224-.468-.345-.723-.055.172-.014.31.042.449.044.114.086.232.11.353.014.065-.008.14-.023.21-.006.02-.045.045-.068.044-.023 0-.064-.03-.065-.048-.017-.236-.13-.434-.229-.64-.036-.074-.024-.169-.05-.254-.01.227-.022.453-.034.68-.003.068-.002.138-.02.203-.013.042-.056.079-.085.117-.029-.04-.08-.077-.083-.119-.022-.25-.034-.503-.047-.753-.003-.056 0-.111-.016-.169a.522.522 0 00-.126.346c0 .123.011.249-.006.37a.691.691 0 01-.096.238c-.015.026-.068.031-.104.045-.013-.032-.03-.064-.038-.098-.004-.02.005-.044.01-.066a.847.847 0 00.016-.445c-.024-.092-.003-.196-.003-.303l-.254.525c-.032.065-.063.131-.103.188-.021.026-.069.033-.103.048-.015-.035-.043-.073-.04-.106.012-.073.036-.145.061-.216l.248-.704c-.172.094-.233.234-.298.375a1.925 1.925 0 01-.206.347c-.042.058-.118.13-.197.064-.02-.016.018-.131.055-.183.084-.114.135-.235.172-.374.031-.118.115-.222.174-.33-.171.153-.346.314-.525.472a1.07 1.07 0 01-.163.12c-.023.013-.071.009-.09-.008-.017-.016-.023-.066-.01-.089a.751.751 0 01.103-.147c.178-.199.358-.396.553-.612-.207.026-.323.145-.442.266-.088.086-.187.16-.293.223-.063.04-.165.087-.212.003-.055-.098.061-.131.123-.166.119-.072.207-.167.29-.278.07-.096.18-.162.276-.244l-.612.213c-.057.021-.113.049-.171.054-.047.007-.097-.015-.145-.025.025-.045.04-.11.077-.13.191-.103.39-.194.587-.29l.237-.115c-.15-.057-.265-.038-.474.053-.1.043-.204.074-.31.094a.384.384 0 01-.178-.013c-.033-.01-.055-.052-.081-.078.026-.025.052-.07.082-.073.198-.023.373-.097.545-.198.088-.051.21-.046.343-.072l-.717-.035a1.212 1.212 0 01-.224-.027C.05 2.567.028 2.523 0 2.497c.028-.026.052-.069.085-.077.073-.018.149-.022.224-.026l.748-.036a.662.662 0 00-.516-.12.642.642 0 01-.423-.088c-.038-.024-.055-.08-.08-.122.045-.013.096-.046.136-.037.16.04.327.047.49.021.132-.02.276.031.417.052-.204-.098-.414-.196-.621-.298a1.752 1.752 0 01-.226-.126C.21 1.624.19 1.572.198 1.547c.007-.023.06-.047.088-.042.078.012.154.034.228.06.227.078.452.16.688.243-.059-.145-.174-.217-.4-.31-.121-.051-.226-.142-.335-.218a.168.168 0 01-.052-.086c-.007-.025-.004-.066.012-.082.015-.016.053-.011.081-.014.004 0 .008.001.011.004.214.234.583.183.8.422a.494.494 0 00-.043-.059c-.154-.17-.309-.34-.462-.512a.454.454 0 01-.083-.12C.719.804.718.75.736.734.756.715.81.716.837.731c.05.025.093.063.135.101l.605.544c-.019-.185-.12-.294-.224-.407-.097-.106-.175-.23-.26-.348a.105.105 0 01-.016-.064c.006-.045.022-.088.033-.133.04.022.096.034.116.067.093.16.205.29.363.394.078.052.12.158.187.25-.009-.035-.012-.061-.022-.086-.066-.19-.134-.375-.2-.565-.016-.041-.04-.085-.04-.128 0-.054.019-.109.029-.164.046.03.111.05.133.094.12.23.229.467.342.7l.061.122c.059-.187-.001-.336-.063-.49a1.854 1.854 0 01-.093-.346.338.338 0 01.024-.166c.009-.022.048-.047.074-.05.02 0 .06.032.062.051.022.227.119.423.224.62.04.077.029.18.052.272.015-.278.033-.555.049-.833 0-.016-.003-.034.004-.045C2.439.08 2.467.04 2.496 0c.03.042.084.081.087.125.023.28.035.564.05.847.003.02.007.038.012.083M.594 2.197c.106.01.216.01.32.036.096.024.185.079.281.11.047.017.1.01.15.016a2.197 2.197 0 00-.454-.18c-.092-.02-.198.011-.297.018L.15 2.092c.13.113.285.119.444.105M4.17 3.545c.103.074.207.147.306.225.023.017.028.057.04.086.016-.019.023-.045.013-.06-.085-.134-.197-.23-.363-.248-.144-.085-.304-.144-.405-.291a.601.601 0 00-.139-.132c-.036-.027-.083-.039-.126-.058.085.108.189.182.273.274a.6.6 0 00.401.204zM.86 1.449a.774.774 0 01-.386-.3c-.033.114.224.32.39.297.015.019.03.039.048.054.108.083.22.162.327.247.055.044.102.1.16.141.029.022.072.024.11.033-.077-.09-.172-.15-.242-.23A.715.715 0 00.86 1.45M.602 2.932c.181-.073.37-.084.564-.073a.586.586 0 00.177-.029c.02-.005.032-.035.055-.063-.195.011-.373.008-.545.037-.089.014-.166.086-.25.131l-.412.072.006.028c.144.006.284-.003.405-.103m2.461.628c-.024-.011-.049-.02-.074-.03l-.024.018.441 1.065.024-.008-.369-1.048c.079.108.18.206.231.327.08.191.25.268.4.375-.106-.124-.239-.23-.327-.364-.09-.135-.115-.315-.268-.442l-.034.107m-.931-2.27a34.543 34.543 0 01-.257-.509C1.803.636 1.734.49 1.663.344a.192.192 0 00-.025.012c.15.358.298.717.447 1.075l.045-.009v-.133l.072.09c0-.141.002-.284-.001-.425-.002-.06 0-.129-.03-.175a1.24 1.24 0 01-.174-.574c0-.004-.011-.006-.055-.031.03.136.03.258.08.352.137.245.133.502.11.765M.84 4.244c.014-.017.025-.037.041-.05.268-.243.537-.485.802-.729.027-.025.034-.072.051-.11-.037.015-.083.02-.108.046-.246.248-.49.498-.733.75-.024.024-.035.061-.053.092-.076-.056-.02-.096.019-.135l.696-.71c.038-.038.07-.08.114-.132-.123.01-.883.838-.903.967l.074.01m2.03-.532c.09.177.18.353.268.532.075.152.147.306.221.46l.025-.011c-.157-.375-.312-.75-.467-1.124a.464.464 0 00-.045.006l-.001.14-.091-.12c.01.207-.005.39.034.562.052.22.147.429.22.632a.475.475 0 00-.058-.323c-.14-.238-.13-.494-.107-.753m.702-1.782l-.034.095c.021.001.045.008.061.002.36-.151.718-.305 1.077-.457l-.008-.02-1.1.383c.107-.077.216-.154.323-.233.08-.06.178-.109.233-.186a.867.867 0 01.292-.274c.045-.024.082-.06.123-.093-.09.035-.175.08-.253.136-.064.045-.132.092-.178.153a.706.706 0 01-.323.25c-.114.046-.217.12-.325.182l.013.044.099.018M1.446 3.059c-.112.08-.213.181-.335.238-.17.08-.257.215-.337.365.117-.1.216-.224.344-.304.133-.084.298-.12.42-.258l-.095-.039.025-.12-1.144.488.01.023c.37-.131.741-.263 1.112-.393m.807.407c.268.084.268.084.491.003-.017.033-.029.059-.046.089.513-.05.928-.593.885-1.144-.045-.595-.554-1.031-1.166-1.002-.567.028-1.02.528-1.009 1.115.01.535.464 1.037.94 1.038l-.095-.099m1.292-.51l-.017.04c.055.079.957.425 1.164.434-.383-.158-.766-.316-1.147-.475M2.534 4.883l.017.001c.02-.389.04-.779.055-1.168.002-.025-.03-.053-.046-.08a.144.144 0 01-.026.012v1.235zm-.002-3.52c.081-.056.081-.056.052-.619-.01-.209-.024-.418-.037-.627l-.015.001v1.245zM3.36.353a.126.126 0 00-.023-.011c-.034.07-.069.139-.102.21-.113.238-.229.474-.338.714-.026.051-.067.113.023.177l.44-1.09M2.467 3.62c-.084.084-.067.996 0 1.263V3.62M3.63 2.434l.015.036h1.226a19.052 19.052 0 00-1.132-.08c-.036-.002-.072.03-.107.044m1.253.107H3.643v.06c.415.008.828-.037 1.243-.06zM.12 2.514l-.001.033c.181.01.363.022.546.031.195.011.39.024.585.029.033 0 .068-.032.1-.05-.03-.013-.06-.04-.09-.04C.88 2.514.5 2.514.12 2.514M2.467.116l-.014.003c-.021.379-.042.758-.06 1.137-.001.033.027.07.041.105a.346.346 0 01.033-.011V.115M.162 2.454h1.214c-.092-.072-1.019-.05-1.214 0zM4.146.809L4.13.793c-.276.253-.553.506-.83.757a.1.1 0 00-.031.046c-.005.019.001.04.002.06.02-.005.044-.004.058-.015.034-.028.063-.063.095-.095l.722-.738m-1.41.562l.058.023c.016-.031.038-.061.047-.094.032-.13.061-.261.092-.391.012-.051.042-.107.031-.153-.05-.208-.029-.41.03-.61C2.996.13 2.977.11 2.966.088c-.019.092-.039.166-.049.24-.014.1-.037.202-.026.3a.77.77 0 01-.056.394c-.046.11-.068.23-.1.348zm-.609 2.2a.58.58 0 00-.05-.004l-.415 1.031.026.011c.147-.308.294-.616.437-.927.015-.03.002-.073.002-.11m-.982.933v.038c.033-.012.08-.012.098-.036.078-.103.166-.205.217-.322.07-.161.143-.313.286-.425a.91.91 0 00.156-.177c.018-.024.013-.066.018-.099a1.82 1.82 0 00-.276.296c-.067.093-.145.189-.17.295-.04.173-.165.284-.258.419-.01.013-.046.009-.07.011M.856.786L.837.81c.091.085.183.172.271.26.183.18.363.363.547.542.019.018.053.02.081.029-.01-.028-.012-.062-.028-.086-.019-.028-.049-.047-.073-.07a108.36 108.36 0 00-.621-.561L.857.786M4.145 4.21a.147.147 0 00.019-.023 182.02 182.02 0 00-.808-.803c-.021-.022-.06-.024-.09-.034.011.032.014.073.037.095.1.098.204.19.306.284.179.162.358.321.536.481zM.816.878L.811.881c.063.07.124.139.188.208.179.198.357.397.539.592.026.027.07.038.106.057l.01-.029L.816.88m-.488.692l1.147.47c-.044-.115-.848-.436-1.147-.47zm3.011.143l.045.045c.296-.284.552-.605.833-.904a.242.242 0 01.021.022l-.899.837m.267.485l.015.03c.141-.009.284-.009.423-.03.104-.015.206-.056.308-.088.096-.029.19-.063.286-.09.057-.016.116-.022.176-.031a.528.528 0 01-.013-.05c-.117.03-.241.045-.35.091-.165.072-.328.13-.512.108a.673.673 0 00-.192.004c-.049.008-.095.036-.141.056m-.538-.697l.043.022c.044-.058.08-.125.132-.175.164-.157.28-.332.342-.558a.582.582 0 01.27-.33c-.038.006-.087.012-.108.04-.073.098-.153.196-.201.307-.069.157-.133.311-.276.418a.697.697 0 00-.134.138c-.03.04-.047.092-.069.138M1.573.324a.13.13 0 01-.023.009c.13.36.258.72.391 1.079.009.024.048.036.071.055l.025-.024-.464-1.12m-.152 1.805c.001-.017.004-.033.006-.05-.356-.146-.712-.292-1.067-.44.314.18.638.336.963.488.028.013.065.002.098.002zm.148 2.617c.01-.043.02-.097.04-.148.125-.318.254-.635.381-.953.013-.035.021-.071.04-.127-.126.078-.493 1.12-.461 1.228zM4.705 1.64l-.016-.024-1.116.478c.01.02.02.04.028.061.375-.155.736-.345 1.104-.515zm-.06 1.71l.007-.021c-.322-.154-.644-.308-.966-.459-.03-.014-.072-.002-.109-.002l-.008.038 1.075.444zm-1.67-1.899c.101-.033.46-.968.47-1.17l-.47 1.17zM.346 3.332l.016.024c.354-.15.708-.303 1.062-.455a.364.364 0 01-.025-.057c-.361.14-.7.332-1.053.487zm3.31-.689a.07.07 0 00.003.02c.151.054.3.118.454.164a.569.569 0 00.232.012.976.976 0 01.574.117c-.022-.032-.045-.071-.077-.08-.117-.032-.24-.077-.358-.072-.19.008-.367 0-.535-.095a.759.759 0 00-.18-.064c-.036-.01-.076-.002-.114-.002m.433 1.334a.048.048 0 01-.008.01c-.211-.231-.421-.465-.635-.696-.02-.023-.057-.029-.086-.043-.002.007-.005.01-.006.017l.735.712m.557-1.093c-.187 0-.36.02-.525-.007-.167-.025-.315-.153-.514-.122.017.03.024.064.036.065.327.032.638.223 1.003.064zm-3.27-.622l.024-.054c-.04-.019-.076-.044-.118-.054-.094-.022-.198-.018-.285-.056-.193-.086-.375-.05-.569.022.343-.127.63.112.949.142M1.305.694a.36.36 0 00-.026.02c.062.063.116.134.185.186.103.076.173.17.222.29.039.096.092.187.145.277.014.023.057.028.086.04-.007-.032-.006-.073-.023-.097-.182-.25-.311-.544-.589-.716m.941 2.913c-.133.077-.215.704-.131.96.007-.157-.014-.32.012-.473.03-.16.14-.3.12-.487zm1.202-.463l-.042.05c.13.1.25.211.39.294.145.087.306.146.461.217l.02-.045c-.053-.024-.104-.06-.16-.07a.717.717 0 01-.4-.234c-.077-.082-.178-.143-.269-.212m-.51 1.482c-.013-.052-.014-.132-.053-.186-.122-.17-.14-.358-.135-.558.002-.085-.028-.17-.048-.278-.037.036-.058.047-.056.054.07.335.045.698.292.968m-.828.223c.01.002.022.003.032.007.021-.118.068-.238.058-.353-.019-.214.003-.41.107-.6a.542.542 0 00.049-.148c.006-.035-.005-.072-.007-.109-.077.18-.173.356-.182.537-.011.218.006.438-.067.651-.001.003.007.01.01.015M2.068.356c.012.05.012.138.054.197.12.172.139.36.134.56-.002.085.028.169.044.253.016.005.031.008.045.011.007-.014.017-.028.015-.041-.066-.344-.06-.708-.292-.98M.73 1.34c.066.024.135.042.197.073.107.055.214.113.315.18.086.059.16.136.243.2.023.016.064.011.097.016-.022-.03-.037-.069-.065-.089-.055-.039-.128-.057-.172-.103A.824.824 0 00.73 1.34m2.904.96l.012.055c.342-.067.704-.05.992-.296-.062.017-.143.023-.2.063-.155.109-.32.134-.503.131-.1-.002-.202.03-.301.047m-.475-.743c.018.013.038.026.055.04.142-.297.47-.486.455-.881-.026.06-.062.112-.07.168a.72.72 0 01-.24.411c-.078.075-.134.174-.2.262zM.378 2.928c.046-.013.12-.016.172-.051a.827.827 0 01.522-.138c.097.003.197-.032.295-.05l-.013-.054c-.338.077-.704.047-.976.294zm1.462.507l-.056-.036c-.135.296-.464.483-.449.877.025-.056.058-.101.066-.15.027-.184.128-.32.26-.447.072-.07.12-.161.18-.244zm-.049-1.846c.012-.008.023-.018.034-.027-.18-.187-.158-.503-.414-.632.06.103.13.211.19.324.04.073.06.155.098.227.02.041.06.073.092.108zm.836-.247c.019.006.04.01.06.017.004-.255.227-.462.157-.701-.043.125-.096.276-.145.427-.027.084-.048.17-.072.257M.958 3.56l.379-.191c.064-.033.129-.062.189-.1.023-.015.034-.048.05-.073l-.022-.02c-.17.182-.472.16-.596.384m2.455-1.784c.01.016.022.03.033.045.168-.184.467-.164.59-.37-.14.064-.3.137-.458.216-.059.029-.111.072-.165.11zm.163 2.273c-.06-.103-.12-.2-.172-.302-.04-.076-.065-.161-.104-.237-.02-.037-.06-.064-.09-.096l-.029.024c.18.175.158.474.395.61m-2.67-.394c-.147.084-.263.2-.431.214.098.06.288-.032.431-.214zm2.833.504l-.03.016c.05.087.1.173.148.261l.036-.022-.154-.255M1.149.553l-.036.021.152.263.03-.015-.147-.269" fill="#7B4022"/>
  <path fill-rule="evenodd" clip-rule="evenodd" d="M2.253 3.466l.095.1c-.476-.001-.93-.504-.94-1.038-.01-.587.442-1.087 1.009-1.116.612-.029 1.12.408 1.166 1.003.042.55-.373 1.094-.885 1.143.017-.03.029-.056.046-.088-.223.08-.223.08-.49-.004m.457-.85c-.004.01-.008.022-.014.033.01.005.021.009.027.016l.069.084c-.034.006-.069.015-.103.02-.02.003-.047-.008-.058.002-.1.092-.19.062-.282.007a5.566 5.566 0 01-.135-.021l.085-.139c-.044.013-.096.014-.123.04-.024.022-.037.083-.022.108.021.036.068.062.11.078.03.012.067.002.102.002l.007.032c-.042.012-.086.037-.128.035-.063-.002-.124 0-.124.075 0 .064.047.106.12.106l.524-.001c.015 0 .036.002.044-.007.027-.034.06-.07.071-.109.003-.014-.052-.054-.085-.064-.06-.016-.121-.02-.182-.029v-.032c.037-.003.075.001.11-.009.043-.013.098-.029.12-.062.018-.028.01-.093-.012-.121-.025-.029-.08-.031-.121-.045m-.864-.547c.35-.097.492-.075.505.08-.18-.075-.353-.102-.51.064.159.163.336.133.518.074-.123.112-.27.107-.423.099.067.032.137.06.207.057.071-.002.14-.037.221-.06v.233c.07-.114.086-.467.033-.56a.155.155 0 00-.045-.05c-.118-.096-.41-.1-.506.063zm1.313.143c-.158-.167-.333-.135-.527-.06.032-.147.143-.141.23-.142.093 0 .185.031.303.054a.389.389 0 00-.391-.113c-.145.033-.196.087-.2.231-.002.117.008.234.014.35.002.025.019.05.029.074l.025-.005v-.227c.15.07.286.116.45-.012-.18.035-.327.035-.45-.075.182.063.356.087.517-.075m-.837 1.08h.363l-.125-.062-.002-.027c.064 0 .127-.006.19 0 .08.011.108-.001.131-.066h-.757c.04.031.09.056.14.063.067.008.134.001.2.001 0 .01 0 .02-.002.03l-.137.061m-.878-.233l-1.112.394-.01-.023L1.47 2.94c-.013.057-.02.088-.025.12l.002-.002zm2.1-.101l1.147.475c-.206-.01-1.108-.356-1.164-.435l.017-.04m.026-1.028l-.098-.016-.012-.045c.107-.061.21-.136.325-.181a.705.705 0 00.323-.25c.045-.062.113-.109.177-.154.075-.054.16-.1.253-.135-.04.031-.078.069-.122.092a.863.863 0 00-.293.274c-.055.077-.153.127-.233.186-.106.079-.216.156-.323.234l.003-.005" fill="#FDD12E"/>
  <path fill-rule="evenodd" clip-rule="evenodd" d="M3.568 1.933l1.1-.385.008.021-1.076.458c-.017.006-.04-.002-.061-.002l.033-.096-.004.004M2.534 4.884V3.649l.026-.011c.017.026.048.054.046.079-.014.39-.035.78-.055 1.169l-.017-.002zm-.002-3.52V.12l.015-.002c.013.21.027.419.037.627.029.563.029.563-.052.62zM3.36.354l-.44 1.09c-.09-.064-.049-.126-.023-.177.11-.24.225-.477.338-.715l.102-.21a.215.215 0 01.023.012m-.894 3.267v1.263c-.067-.267-.084-1.179 0-1.263zm1.166-1.186c.036-.015.072-.046.107-.044.378.017.757.04 1.132.08H3.645a.715.715 0 01-.014-.036m1.253.107c-.414.023-.828.068-1.242.06v-.06h1.242zM.12 2.517c.38 0 .76-.001 1.14.002.03 0 .06.027.09.041-.033.017-.068.05-.1.05-.196-.006-.39-.018-.586-.03l-.546-.03a.235.235 0 00.002-.034M2.466.117v1.234l-.033.011c-.015-.035-.043-.071-.042-.105.018-.38.04-.759.06-1.136l.015-.003M.16 2.455c.195-.048 1.122-.071 1.214 0H.16M4.145.812c-.242.245-.482.492-.723.738-.031.031-.06.066-.095.094-.014.011-.038.01-.057.015-.002-.02-.007-.04-.003-.06a.101.101 0 01.032-.045l.83-.758.016.016M2.87 3.715v-.141a.464.464 0 01.045-.007c.156.375.31.75.467 1.124l-.025.011-.22-.46-.27-.531.003.004m-2.03.529c.017-.032.028-.07.052-.093.243-.252.487-.504.733-.75.026-.026.071-.03.108-.046-.017.038-.024.085-.05.11-.266.244-.535.486-.803.728-.016.014-.027.034-.04.05v.002m1.893-2.872c.032-.118.054-.238.1-.35A.767.767 0 002.89.63c-.01-.097.012-.2.027-.298.01-.075.03-.15.049-.241.01.023.03.042.026.057a1.18 1.18 0 00-.03.61c.012.046-.018.102-.03.152-.031.13-.06.262-.092.391-.01.033-.031.063-.048.095l-.058-.022m-.606-.086v.134l-.045.01c-.148-.36-.297-.719-.447-1.076a.154.154 0 01.026-.012c.07.145.139.292.211.437.085.171.172.34.257.51l-.002-.003z" fill="#FDD12E"/>
  <path fill-rule="evenodd" clip-rule="evenodd" d="M.84 4.243l-.074-.01c.02-.13.78-.958.903-.967-.044.052-.076.095-.114.133l-.696.709c-.038.04-.095.079-.019.136v-.001m1.285-.67c0 .038.013.081-.002.111-.143.31-.29.619-.437.927l-.025-.01.413-1.033.05.005m-.98.932c.025-.002.06.002.07-.01.093-.136.218-.246.258-.42.025-.106.103-.202.17-.294a1.9 1.9 0 01.276-.296c-.005.033 0 .074-.017.099a.91.91 0 01-.157.176c-.143.113-.214.264-.286.425-.05.117-.139.22-.217.323-.017.023-.065.024-.097.036v-.039M.856.79l.156.137.621.56c.024.024.055.043.074.071.015.025.018.058.027.087-.027-.01-.062-.012-.081-.03-.184-.18-.364-.362-.547-.542a14.83 14.83 0 00-.27-.26L.856.79m3.287 3.424l-.536-.481c-.102-.093-.207-.186-.306-.284-.022-.022-.025-.063-.037-.095.03.01.07.012.09.034.27.267.54.535.808.803a.141.141 0 01-.019.023M.814.88l.839.83a.176.176 0 00-.01.03c-.036-.02-.08-.03-.107-.058-.181-.195-.36-.394-.539-.591L.81.883A.067.067 0 01.814.881m-.488.692c.3.034 1.103.354 1.147.47l-1.147-.47zm3.01.143l.9-.836a.201.201 0 00-.022-.022c-.28.299-.537.62-.833.903a1.676 1.676 0 01-.045-.045m.266.485c.047-.02.093-.048.142-.056a.702.702 0 01.192-.003c.184.022.346-.036.511-.108.11-.046.233-.061.35-.091l.013.05c-.06.008-.118.014-.175.03-.097.027-.19.062-.287.09-.102.032-.203.073-.307.088-.14.022-.282.022-.424.031a.385.385 0 00-.015-.03m-.537-.697c.022-.046.038-.098.068-.138a.709.709 0 01.134-.137c.143-.108.208-.261.276-.418.048-.112.127-.21.201-.307.021-.028.07-.035.109-.04a.584.584 0 00-.271.33 1.18 1.18 0 01-.342.557c-.052.05-.088.117-.132.175a.673.673 0 00-.043-.022M1.57.326l.464 1.12-.025.023c-.024-.019-.063-.03-.071-.054-.133-.359-.262-.719-.392-1.08A.14.14 0 001.57.327M1.417 2.13c-.033 0-.07.011-.097-.002a12.43 12.43 0 01-.964-.487l1.067.44c-.002.017-.005.033-.006.05m.148 2.616c-.032-.107.336-1.15.46-1.227-.017.056-.025.092-.038.127-.128.318-.257.635-.382.953-.02.05-.03.105-.04.147zM4.7 1.644c-.369.17-.729.36-1.104.515-.008-.021-.018-.041-.027-.062l1.116-.477.015.024M2.132 1.29c.023-.263.027-.52-.109-.765-.05-.095-.05-.216-.08-.353.043.026.055.028.055.032.018.203.062.397.175.574.029.046.027.116.029.174.003.142 0 .284 0 .426l-.07-.088m.739 2.421c-.023.26-.034.516.106.754.06.103.076.222.058.322-.073-.203-.168-.412-.22-.632-.039-.171-.024-.354-.034-.561l.091.12-.001-.002m.19-.156l.368 1.049-.023.007-.442-1.065.025-.018.074.03-.002-.003m1.58-.202c-.359-.147-.716-.296-1.075-.444l.008-.038c.037 0 .079-.012.11.002.321.151.643.305.965.459l-.008.021zM2.972 1.455l.47-1.171c-.01.203-.369 1.138-.47 1.171z" fill="#FDD12E"/>
  <path fill-rule="evenodd" clip-rule="evenodd" d="M3.063 3.56l.034-.106c.153.127.177.306.268.442.088.134.221.24.327.364-.15-.108-.32-.185-.4-.375-.05-.121-.152-.22-.23-.327l.001.003m-2.72-.227c.354-.155.693-.347 1.054-.487.007.02.016.04.024.057L.36 3.36l-.016-.025zm3.312-.689c.038 0 .077-.008.114.002a.759.759 0 01.18.064c.168.095.345.103.534.096.119-.006.241.04.359.071.032.009.055.048.077.08-.185-.09-.368-.144-.575-.117a.582.582 0 01-.232-.012c-.154-.046-.302-.11-.453-.165l-.004-.019m.431 1.335l-.736-.712c.001-.006.004-.01.006-.017.03.014.067.02.087.043.213.231.423.465.635.697a.04.04 0 00.008-.011" fill="#FDD12E"/>
  <path fill-rule="evenodd" clip-rule="evenodd" d="M4.641 2.887c-.365.159-.676-.032-1.003-.064-.012-.001-.02-.034-.036-.065.2-.031.346.096.514.122.166.027.338.007.525.007m-3.266-.62c-.32-.03-.606-.27-.949-.142.192-.073.375-.107.568-.022.087.038.191.034.286.055.041.01.079.036.118.055l-.023.054m.068.795c.028.01.056.022.095.038-.122.14-.287.175-.42.258-.128.08-.227.205-.344.305.08-.15.168-.286.337-.365.122-.057.223-.159.335-.24l-.003.004zM1.303.696c.278.172.407.465.59.716.017.024.015.065.023.098-.03-.012-.072-.018-.086-.041a1.969 1.969 0 01-.145-.277.646.646 0 00-.223-.29C1.392.851 1.34.78 1.278.717a.238.238 0 01.026-.02m.94 2.914c.02.187-.09.327-.119.486-.026.153-.005.316-.012.473-.085-.256-.002-.883.131-.96zm1.202-.464c.09.07.192.13.268.212a.72.72 0 00.402.233c.055.01.105.047.16.07l-.021.046c-.155-.071-.317-.13-.462-.217-.139-.083-.26-.195-.389-.293l.042-.051m-.51 1.482c-.247-.27-.221-.633-.292-.968-.002-.007.019-.018.056-.055.02.11.05.194.048.278-.006.2.013.389.135.559.039.053.04.134.053.186" fill="#FDD12E"/>
  <path fill-rule="evenodd" clip-rule="evenodd" d="M2.106 4.85c-.003-.005-.01-.012-.01-.015.073-.213.056-.433.068-.651.01-.18.105-.356.181-.537.003.037.014.075.007.109a.525.525 0 01-.048.149 1.012 1.012 0 00-.107.6c.01.115-.037.234-.058.352l-.033-.007M2.065.358c.231.272.226.636.292.98.002.012-.008.027-.015.041l-.045-.011c-.016-.084-.046-.168-.044-.253.005-.2-.014-.388-.134-.56-.042-.06-.042-.147-.054-.197m-1.336.986c.246.002.449.1.615.277.044.046.118.065.172.103.028.02.043.058.065.09-.033-.006-.074 0-.097-.017-.083-.064-.157-.141-.243-.2a3.095 3.095 0 00-.315-.18c-.062-.031-.131-.049-.197-.073m-.127 1.59c.084-.045.161-.116.25-.13.172-.03.35-.026.546-.038-.024.028-.037.058-.056.064a.582.582 0 01-.177.028c-.193-.01-.383 0-.564.073l.001.003m3.03-.63c.1-.017.2-.049.301-.046.183.003.349-.023.503-.132.057-.04.139-.046.2-.063-.288.247-.65.23-.992.296-.005-.018-.008-.037-.012-.055m-.472-.742c.065-.088.121-.187.2-.262a.725.725 0 00.239-.41c.008-.056.045-.107.07-.168.016.395-.313.584-.454.88-.017-.014-.037-.026-.055-.04z" fill="#FDD12E"/>
  <path fill-rule="evenodd" clip-rule="evenodd" d="M.376 2.932c.272-.247.638-.217.976-.293l.013.053c-.099.018-.198.054-.295.05a.827.827 0 00-.523.138c-.05.035-.125.038-.17.052m1.46.505c-.058.082-.106.174-.18.244-.13.125-.231.262-.258.446-.008.049-.04.094-.066.15-.015-.394.314-.581.449-.877.02.012.038.025.056.037zm-.976-1.99a.725.725 0 01.405.244c.07.08.165.14.241.23-.037-.01-.08-.012-.11-.034-.057-.041-.104-.097-.16-.141-.106-.085-.218-.164-.326-.247-.018-.015-.033-.035-.048-.053l-.002.001zm3.31 2.098a.593.593 0 01-.4-.204c-.085-.092-.189-.166-.273-.274.042.02.09.03.126.057.05.039.103.08.138.132.102.148.262.208.405.291l.003-.002M1.79 1.592c-.033-.035-.073-.067-.094-.108-.038-.072-.058-.154-.097-.226-.06-.113-.13-.222-.19-.325.256.129.234.446.414.632l-.034.027zm.835-.247c.024-.086.045-.173.072-.258.048-.15.102-.301.145-.427.07.24-.153.446-.157.702-.02-.007-.041-.011-.06-.017M.955 3.563c.124-.224.426-.202.596-.385l.022.022c-.016.024-.027.058-.05.071-.06.04-.125.069-.19.101-.128.065-.256.13-.378.19m-.36-1.365c.098-.008.204-.039.296-.018.155.036.303.105.456.18-.051-.006-.105 0-.151-.016-.096-.032-.185-.086-.281-.11C.81 2.207.7 2.207.595 2.197M3.41 1.78c.054-.037.106-.08.165-.11.157-.078.319-.15.459-.216-.124.208-.423.187-.591.37a1.039 1.039 0 01-.033-.044m.161 2.272c-.236-.136-.215-.436-.395-.61l.029-.024c.03.032.07.058.09.096.04.075.064.16.104.237.053.1.112.198.172.301" fill="#FDD12E"/>
  <path fill-rule="evenodd" clip-rule="evenodd" d="M.863 1.446c-.166.023-.423-.183-.39-.298a.767.767 0 00.387.3l.003-.002m.043 2.21c-.144.182-.333.275-.432.216.168-.016.285-.131.432-.216zm3.261-.109c.166.02.279.115.363.25.01.014.004.04-.012.059-.013-.03-.018-.07-.04-.086-.1-.079-.204-.15-.306-.225l-.005.002zM.602 2.932c-.12.1-.26.109-.405.102l-.005-.028.412-.072-.002-.002zm-.007-.735c-.159.014-.313.008-.444-.106.147.036.296.072.444.106zM3.737 4.16l.154.256-.036.022a24.74 24.74 0 00-.148-.26l.03-.018zM1.147.555l.146.269-.03.016-.151-.263.034-.022" fill="#FDD12E"/>
  <path fill-rule="evenodd" clip-rule="evenodd" d="M2.71 2.615c.043.014.097.016.122.044.023.028.03.094.012.122-.022.033-.077.048-.12.062-.035.01-.073.006-.11.009v.032c.06.008.123.012.182.029.033.01.088.05.086.064-.011.04-.045.075-.072.109-.008.008-.03.006-.044.006-.174.001-.349 0-.523.002-.074 0-.12-.043-.12-.106 0-.075.06-.077.123-.075.042.002.086-.023.128-.036l-.007-.031c-.035 0-.072.01-.102-.002-.042-.016-.089-.042-.11-.078-.014-.025-.002-.087.022-.109.026-.026.079-.027.123-.04l-.085.14.135.02c.091.055.181.086.282-.007.01-.01.039.002.058-.001.035-.005.07-.014.103-.02a2.772 2.772 0 00-.069-.084c-.006-.007-.017-.011-.027-.016l.014-.034m-.364.341v.034h.31v-.034h-.31zm-.5-.887c.096-.163.388-.16.506-.063.018.013.034.03.044.05.054.093.037.446-.032.56v-.233c-.08.023-.15.058-.221.06a.472.472 0 01-.208-.057c.153.008.3.013.424-.1-.183.06-.36.09-.519-.074.157-.165.33-.138.511-.063-.013-.155-.156-.178-.505-.08m.364.14c-.042-.03-.071-.067-.09-.06-.027.007-.048.042-.07.067.023.02.046.05.07.053.024.001.049-.03.09-.06m.949.003c-.162.161-.335.138-.517.074.123.11.269.11.449.075-.164.128-.3.082-.45.013V2.6l-.024.005c-.01-.024-.027-.049-.029-.073-.007-.116-.017-.234-.014-.35.004-.145.055-.198.2-.232a.389.389 0 01.39.113c-.117-.023-.21-.053-.302-.053-.087 0-.198-.005-.23.142.193-.076.369-.107.527.06m-.308.096l.05-.026c.014-.025.046-.054.042-.075-.006-.024-.04-.042-.063-.062-.022.024-.058.046-.063.074-.004.027.021.06.034.09m-.53.983l.138-.062c.002-.01.002-.02.002-.029-.067 0-.133.007-.2-.002a.31.31 0 01-.14-.062h.757c-.023.065-.05.077-.131.067-.063-.007-.126-.001-.19-.001l.002.027c.037.019.074.038.125.062h-.363" fill="#7B4022"/>
  <path fill-rule="evenodd" clip-rule="evenodd" d="M2.347 2.957h.31v.034h-.31v-.034zM2.21 2.21c-.041.03-.067.06-.09.058-.024-.001-.047-.033-.07-.053.023-.023.043-.06.07-.067.019-.005.048.031.09.062zm.641.098c-.012-.03-.038-.063-.033-.09.005-.028.04-.05.063-.074.022.02.057.038.063.062.004.022-.028.05-.043.075a3.263 3.263 0 00-.05.027" fill="#FDD12E"/>
</svg>
