<svg xmlns="http://www.w3.org/2000/svg" fill="none" viewBox="0 0 64 53">
  <path d="M61.306 51.762l-58.96-33.93C1.027 17.1 0 15.052 0 13.298V2.037C0 .282 1.027-.45 2.347.28l58.96 33.93c1.32.732 2.346 2.78 2.346 4.535v11.261c.147 1.755-1.027 2.486-2.347 1.755z" fill="#2B2320"/>
  <path d="M15.693 18.27l-8.214-4.827c-.586-.438-1.173-1.316-1.173-2.193 0-.878.587-1.317 1.173-.878l8.214 4.826c.586.44 1.173 1.317 1.173 2.194 0 .878-.44 1.316-1.173.878z" fill="#EE4037"/>
  <path d="M22.734 20.756c0 .878-.586 1.17-1.32.731-.733-.438-1.32-1.462-1.32-2.34 0-.877.587-1.17 1.32-.731.734.439 1.32 1.609 1.32 2.34z" fill="#2B2320"/>
  <path d="M27.575 23.534c0 .878-.587 1.17-1.32.732-.733-.44-1.32-1.463-1.32-2.34 0-.878.587-1.17 1.32-.732.733.439 1.32 1.463 1.32 2.34z" fill="#fff"/>
  <path d="M32.411 26.314c0 .877-.587 1.17-1.32.731-.733-.439-1.32-1.463-1.32-2.34 0-.878.587-1.17 1.32-.731.733.438 1.32 1.462 1.32 2.34z" fill="#EE4037"/>
  <path d="M37.107 29.093c0 .877-.587 1.17-1.32.731-.734-.439-1.32-1.463-1.32-2.34 0-.878.586-1.17 1.32-.731.733.439 1.32 1.462 1.32 2.34z" fill="#fff"/>
  <path d="M57.346 43.132l-2.786-1.608c-.44-.293-.734-.878-.734-1.463v-2.925c0-.585.294-.878.733-.585l2.787 1.609c.44.292.734.877.734 1.462v2.925c0 .585-.294.878-.734.585z" fill="#EE4037"/>
</svg>
